<mxfile host="app.diagrams.net" agent="Mozilla/5.0 (X11; Linux x86_64) AppleWebKit/537.36 (KHTML, like Gecko) Chrome/130.0.0.0 Safari/537.36" version="24.9.1">
  <diagram name="Page-1" id="7aOQE7A1e8wCeRmIDHU2">
    <mxGraphModel dx="757" dy="447" grid="1" gridSize="10" guides="1" tooltips="1" connect="1" arrows="1" fold="1" page="1" pageScale="1" pageWidth="850" pageHeight="1100" math="0" shadow="0">
      <root>
        <mxCell id="0" />
        <mxCell id="1" parent="0" />
        <mxCell id="i1F_kWrU2W4WgM-QnYfm-2" style="edgeStyle=orthogonalEdgeStyle;rounded=0;orthogonalLoop=1;jettySize=auto;html=1;exitX=0.5;exitY=1;exitDx=0;exitDy=0;" edge="1" parent="1" source="i1F_kWrU2W4WgM-QnYfm-1" target="i1F_kWrU2W4WgM-QnYfm-1">
          <mxGeometry relative="1" as="geometry" />
        </mxCell>
        <object label="Program class&amp;nbsp;" id="i1F_kWrU2W4WgM-QnYfm-1">
          <mxCell style="rounded=0;whiteSpace=wrap;html=1;fontSize=23;" vertex="1" parent="1">
            <mxGeometry x="60" y="20" width="240" height="60" as="geometry" />
          </mxCell>
        </object>
        <mxCell id="i1F_kWrU2W4WgM-QnYfm-4" value="" style="endArrow=classic;html=1;rounded=0;" edge="1" parent="1">
          <mxGeometry width="50" height="50" relative="1" as="geometry">
            <mxPoint x="164" y="80" as="sourcePoint" />
            <mxPoint x="164" y="130" as="targetPoint" />
          </mxGeometry>
        </mxCell>
        <mxCell id="i1F_kWrU2W4WgM-QnYfm-7" value="creates Vedio Class" style="ellipse;whiteSpace=wrap;html=1;aspect=fixed;fontSize=19;" vertex="1" parent="1">
          <mxGeometry x="110" y="130" width="120" height="120" as="geometry" />
        </mxCell>
        <mxCell id="i1F_kWrU2W4WgM-QnYfm-8" value="vedio class" style="triangle;whiteSpace=wrap;html=1;fontSize=20;rotation=-90;" vertex="1" parent="1">
          <mxGeometry x="100.79" y="269.12" width="124.62" height="194" as="geometry" />
        </mxCell>
        <mxCell id="i1F_kWrU2W4WgM-QnYfm-10" value="" style="endArrow=classic;html=1;rounded=0;" edge="1" parent="1">
          <mxGeometry width="50" height="50" relative="1" as="geometry">
            <mxPoint x="164" y="255" as="sourcePoint" />
            <mxPoint x="164" y="305" as="targetPoint" />
          </mxGeometry>
        </mxCell>
      </root>
    </mxGraphModel>
  </diagram>
</mxfile>
